HIERARCHY
ROOT hip
{
  OFFSET 0 0 0
  CHANNELS 6 Xposition Yposition Zposition Zrotation Yrotation Xrotation
  JOINT abdomen
  {
    OFFSET 0 20.6881 -0.73152
    CHANNELS 3 Zrotation Xrotation Yrotation
    JOINT chest
    {
      OFFSET 0 11.7043 -0.48768
      CHANNELS 3 Zrotation Xrotation Yrotation
      JOINT neck
      {
        OFFSET 0 22.1894 -2.19456
        CHANNELS 3 Zrotation Xrotation Yrotation
        JOINT head
        {
          OFFSET -0.24384 7.07133 1.2192
          CHANNELS 3 Zrotation Xrotation Yrotation
          JOINT leftEye
          {
            OFFSET 4.14528 8.04674 8.04672
            CHANNELS 3 Zrotation Xrotation Yrotation
            End Site
            {
              OFFSET 1 0 0
            }
          }
          JOINT rightEye
          {
            OFFSET -3.6576 8.04674 8.04672
            CHANNELS 3 Zrotation Xrotation Yrotation
            End Site
            {
              OFFSET 1 0 0
            }
          }
        }
      }
      JOINT rCollar
      {
        OFFSET -2.68224 19.2634 -4.8768
        CHANNELS 3 Zrotation Xrotation Yrotation
        JOINT rShldr
        {
          OFFSET -8.77824 -1.95073 1.46304
          CHANNELS 3 Zrotation Xrotation Yrotation
          JOINT rForeArm
          {
            OFFSET -28.1742 -1.7115 0.48768
            CHANNELS 3 Zrotation Xrotation Yrotation
            JOINT rHand
            {
              OFFSET -22.5879 0.773209 7.07136
              CHANNELS 3 Zrotation Xrotation Yrotation
              JOINT rThumb1
              {
                OFFSET -1.2192 -0.487915 3.41376
                CHANNELS 3 Zrotation Xrotation Yrotation
                JOINT rThumb2
                {
                  OFFSET -3.37035 -0.52449 3.41376
                  CHANNELS 3 Zrotation Xrotation Yrotation
                  End Site
                  {
                    OFFSET -1.78271 -1.18214 1.43049
                  }
                }
              }
              JOINT rIndex1
              {
                OFFSET -7.75947 0.938293 5.60832
                CHANNELS 3 Zrotation Xrotation Yrotation
                JOINT rIndex2
                {
                  OFFSET -2.54057 -0.884171 1.56538
                  CHANNELS 3 Zrotation Xrotation Yrotation
                  End Site
                  {
                    OFFSET -1.62519 -0.234802 1.16502
                  }
                }
              }
              JOINT rMid1
              {
                OFFSET -8.24714 1.18213 3.41376
                CHANNELS 3 Zrotation Xrotation Yrotation
                JOINT rMid2
                {
                  OFFSET -3.10165 -0.590103 1.0647
                  CHANNELS 3 Zrotation Xrotation Yrotation
                  End Site
                  {
                    OFFSET -2.48547 -0.328903 0.83742
                  }
                }
              }
              JOINT rRing1
              {
                OFFSET -8.82822 0.546677 1.51678
                CHANNELS 3 Zrotation Xrotation Yrotation
                JOINT rRing2
                {
                  OFFSET -2.60934 -0.819778 -0.0198488
                  CHANNELS 3 Zrotation Xrotation Yrotation
                  End Site
                  {
                    OFFSET -2.33842 -0.294052 0.168128
                  }
                }
              }
              JOINT rPinky1
              {
                OFFSET -8.27202 -0.0477905 -0.4584
                CHANNELS 3 Zrotation Xrotation Yrotation
                JOINT rPinky2
                {
                  OFFSET -1.82734 -0.647385 -0.700984
                  CHANNELS 3 Zrotation Xrotation Yrotation
                  End Site
                  {
                    OFFSET -1.69225 -0.51767 -0.607171
                  }
                }
              }
            }
          }
        }
      }
      JOINT lCollar
      {
        OFFSET 2.68224 19.2634 -4.8768
        CHANNELS 3 Zrotation Xrotation Yrotation
        JOINT lShldr
        {
          OFFSET 8.77824 -1.95073 1.46304
          CHANNELS 3 Zrotation Xrotation Yrotation
          JOINT lForeArm
          {
            OFFSET 28.1742 -1.7115 0.48768
            CHANNELS 3 Zrotation Xrotation Yrotation
            JOINT lHand
            {
              OFFSET 22.5879 0.773209 7.07136
              CHANNELS 3 Zrotation Xrotation Yrotation
              JOINT lThumb1
              {
                OFFSET 1.2192 -0.487915 3.41376
                CHANNELS 3 Zrotation Xrotation Yrotation
                JOINT lThumb2
                {
                  OFFSET 3.37035 -0.52449 3.41376
                  CHANNELS 3 Zrotation Xrotation Yrotation
                  End Site
                  {
                    OFFSET 1.78271 -1.18214 1.43049
                  }
                }
              }
              JOINT lIndex1
              {
                OFFSET 7.75947 0.938293 5.60832
                CHANNELS 3 Zrotation Xrotation Yrotation
                JOINT lIndex2
                {
                  OFFSET 2.54057 -0.884171 1.56538
                  CHANNELS 3 Zrotation Xrotation Yrotation
                  End Site
                  {
                    OFFSET 1.62519 -0.234802 1.16502
                  }
                }
              }
              JOINT lMid1
              {
                OFFSET 8.24714 1.18213 3.41376
                CHANNELS 3 Zrotation Xrotation Yrotation
                JOINT lMid2
                {
                  OFFSET 3.10165 -0.590103 1.0647
                  CHANNELS 3 Zrotation Xrotation Yrotation
                  End Site
                  {
                    OFFSET 2.48547 -0.328903 0.83742
                  }
                }
              }
              JOINT lRing1
              {
                OFFSET 8.82822 0.546677 1.51678
                CHANNELS 3 Zrotation Xrotation Yrotation
                JOINT lRing2
                {
                  OFFSET 2.60934 -0.819778 -0.0198488
                  CHANNELS 3 Zrotation Xrotation Yrotation
                  End Site
                  {
                    OFFSET 2.33842 -0.294052 0.168128
                  }
                }
              }
              JOINT lPinky1
              {
                OFFSET 8.27202 -0.0477905 -0.4584
                CHANNELS 3 Zrotation Xrotation Yrotation
                JOINT lPinky2
                {
                  OFFSET 1.82734 -0.647385 -0.700984
                  CHANNELS 3 Zrotation Xrotation Yrotation
                  End Site
                  {
                    OFFSET 1.69225 -0.51767 -0.607171
                  }
                }
              }
            }
          }
        }
      }
    }
  }
  JOINT rButtock
  {
    OFFSET -8.77824 4.35084 1.2192
    CHANNELS 3 Zrotation Xrotation Yrotation
    JOINT rThigh
    {
      OFFSET 0 -1.70687 -2.19456
      CHANNELS 3 Zrotation Xrotation Yrotation
      JOINT rShin
      {
        OFFSET 0 -36.8199 0.73152
        CHANNELS 3 Zrotation Xrotation Yrotation
        JOINT rFoot
        {
          OFFSET 0.73152 -45.1104 -5.12064
          CHANNELS 3 Zrotation Xrotation Yrotation
          End Site
          {
            OFFSET -1.1221 -3.69964 12.103
          }
        }
      }
    }
  }
  JOINT lButtock
  {
    OFFSET 8.77824 4.35084 1.2192
    CHANNELS 3 Zrotation Xrotation Yrotation
    JOINT lThigh
    {
      OFFSET 0 -1.70687 -2.19456
      CHANNELS 3 Zrotation Xrotation Yrotation
      JOINT lShin
      {
        OFFSET 0 -36.8199 0.73152
        CHANNELS 3 Zrotation Xrotation Yrotation
        JOINT lFoot
        {
          OFFSET -0.73152 -45.1104 -5.12064
          CHANNELS 3 Zrotation Xrotation Yrotation
          End Site
          {
            OFFSET 1.1221 -3.69964 12.103
          }
        }
      }
    }
  }
}
MOTION
Frames:	7
Frame Time:	0.00833333
0.0 0.0 0.0 0.0 0.0 0.0 0.0 0.0 0.0 0.0 0.0 0.0 0.0 0.0 0.0 0.0 0.0 0.0 0.0 0.0 0.0 0.0 0.0 0.0 0.0 0.0 0.0 0.0 0.0 0.0 0.0 0.0 0.0 0.0 0.0 0.0 0.0 0.0 0.0 0.0 0.0 0.0 0.0 0.0 0.0 0.0 0.0 0.0 0.0 0.0 0.0 0.0 0.0 0.0 0.0 0.0 0.0 0.0 0.0 0.0 0.0 0.0 0.0 0.0 0.0 0.0 0.0 0.0 0.0 0.0 0.0 0.0 0.0 0.0 0.0 0.0 0.0 0.0 0.0 0.0 0.0 0.0 0.0 0.0 0.0 0.0 0.0 0.0 0.0 0.0 0.0 0.0 0.0 0.0 0.0 0.0 0.0 0.0 0.0 0.0 0.0 0.0 0.0 0.0 0.0 0.0 0.0 0.0 0.0 0.0 0.0 0.0 0.0 0.0 0.0 0.0 0.0 0.0 0.0 0.0 0.0 0.0 0.0 0.0 0.0 0.0 0.0 0.0 0.0 0.0 0.0 0.0
109.9364 83.6049 -13.8496 88.780272 -87.928722 -84.228993 -1.069081 -1.07375 -0.064579 2.008773 -1.290217 2.696308 -9.931934 10.878159 -52.469754 17.615071 1.692113 48.353175 0.002083 0.0 0.004272 0.002093 -0.0 -0.001453 2.459923 -18.216299 -3.669684 20.117136 -1.123674 -6.467173 178.679585 -0.325398 131.81436 168.716374 -19.3012 143.638765 -0.491693 0.484675 0.076854 17.77641 -27.354623 -12.583759 -155.192922 -24.299746 122.14386 -90.916334 55.914797 72.769251 -160.672376 -6.668113 143.24469 5.202599 -5.864019 -0.315211 -145.118879 0.267828 -179.212257 -145.057576 -50.807694 -167.337407 -156.864164 55.541591 -150.329365 44.712484 80.267522 -9.067525 80.165926 68.371326 -83.260997 158.299475 -19.416506 -155.227217 -66.653144 -42.85242 -31.659078 -173.207648 26.277272 -155.624459 2.608549 2.554392 -0.458838 -2.934014 -3.00872 0.614959 145.906499 -7.259717 -118.94999 -164.171592 -58.992334 -103.507202 82.840407 61.110222 -74.532441 176.364774 -42.125091 -142.681554 145.100727 -1.522534 178.65086 79.172311 87.678887 -92.614827 134.693091 -14.105129 132.114294 -16.575422 41.540075 -6.067202 -179.999933 75.748271 -4.6e-05 177.506428 66.184579 2.725324 -5.840772 19.313256 -82.812995 4.435453 -46.506362 93.836133 0.0 -0.00035 8.8e-05 -1.705362 -5.773821 11.356356 -4.748658 12.28443 -88.448245 15.268346 -52.84623 102.217736
109.9094 83.5884 -13.756599999999999 82.731637 -87.804283 -78.689491 -3.376529 -7.008752 180.0 -3.920989 -2.240414 -174.964943 2.875991 29.188723 157.61279 -14.663856 31.072013 -164.3553 0.000164 -0.0 -0.004602 0.000164 -0.0 -0.004602 -80.166057 68.371705 83.260879 3.86923 16.027163 53.158635 155.486693 -14.622335 -169.055362 -35.146055 66.13893 20.511834 -178.928331 -16.453416 89.421016 52.741085 -71.819601 39.589421 -77.666882 43.029958 64.53876 87.709117 -64.891427 40.451387 -169.088705 -33.247659 145.37426 2.996379 0.378152 0.390172 -72.352028 72.974142 90.218454 -158.921915 -25.035269 179.651072 -145.174983 12.066449 -141.824629 46.421321 79.97916 -10.10719 157.797305 -22.115551 -165.466986 -147.852554 -24.142985 -170.251888 -121.861954 -8.142108 -168.759983 -166.37387 13.008256 -167.069208 89.136103 38.427921 -50.29923 145.298284 -27.321775 -80.217802 148.886721 -12.609416 -120.245186 167.502033 -26.998235 -118.946842 166.210304 -24.327969 -145.093824 -167.239744 -63.968966 -132.428639 145.099327 -1.522942 178.649497 -11.345381 13.855033 7.366064 144.985968 11.468227 141.655073 -15.2021 38.503772 -5.621712 -0.000434 3.5e-05 0.000559 -3.509224 -15.752653 -180.0 2.854384 -35.042385 38.755055 100.697463 -32.176718 -171.734197 -0.001264 -0.000528 -0.0 -4.00118 -11.959746 150.867011 10.439685 -27.28605 -33.158296 -170.712249 20.16893 96.863701
109.9024 83.5647 -13.6937 77.601383 -87.7499 -74.086291 -3.09653 -4.741545 -69.446311 3.046868 2.577585 77.075683 -7.924885 35.327204 -152.111042 11.6836 42.645793 133.179749 0.0007 -0.0 -0.00108 0.0007 -0.0 -0.00108 -9.651374 34.836191 11.199306 -108.782275 -22.203002 150.167172 23.363881 -48.624745 -56.039402 167.376282 -18.259918 144.337039 -1.584543 1.555816 0.264751 -6.110776 7.074046 6.147014 -19.172159 24.113946 13.381184 5.584992 4.391296 -0.25916 10.384812 -32.500061 -3.261348 5.0593 -5.881177 -0.669394 -0.006403 3.557399 1.117562 6.627535 29.702144 4.670048 -25.538911 -38.087208 -24.598553 -23.848257 -41.272076 -25.371718 143.620346 38.233248 -148.080261 22.259652 -15.838646 -61.750262 -5.046577 -12.740258 94.513001 -40.353433 -50.78432 -55.280323 -83.254353 -50.257684 -33.61571 150.074631 -3.276152 -116.018575 -18.124283 -32.540439 5.966011 177.657973 -38.974661 -106.160843 175.767088 -50.334499 -144.097579 163.909241 -6.212873 -143.166772 145.120161 0.226442 179.199934 156.27582 63.71083 -172.349664 156.377546 53.734608 150.119327 173.534381 72.840345 142.396398 -0.001969 -0.000202 -0.000984 -5.347666 -16.988019 -17.764485 -3.614149 33.379167 103.12859 -168.946162 1.171347 105.696501 -179.997934 75.748681 -0.002132 169.781758 59.613584 -180.0 14.576355 -29.171942 116.595893 37.281108 -56.247614 111.604628
109.88940000000001 83.5367 -13.6381 72.814315 -87.704167 -69.800979 -6.594357 -3.636373 -0.695513 7.030852 -4.06844 9.869065 -16.893859 26.699005 -62.198469 40.254195 1.164301 42.929948 0.000532 0.0 0.00265 -8.2e-05 -0.0 0.003899 3.191795 -25.838901 -5.074331 75.195071 -9.986172 -34.565841 7.786416 5.951429 45.828467 -10.326149 39.47293 3.26519 4.529924 -4.514502 -0.520701 -136.737863 -37.91101 120.63959 -90.225289 41.072311 75.796795 -1.540653 12.316547 -2.70076 -160.826308 -7.141863 143.31607 3.124767 0.272731 0.397206 0.006151 1.771372 0.556547 4.942116 -74.590451 -15.036379 11.406304 38.078272 9.693525 -26.25444 -42.046434 -26.305398 -0.482582 -3.000787 0.653586 92.219716 18.474207 162.464314 -11.775833 -25.575612 100.501215 -31.43449 -49.412075 -50.295132 -88.927803 -50.831195 -37.600484 33.215474 5.210194 8.021337 -11.980122 -21.347185 5.061692 -91.562122 -61.125935 -37.330543 160.573271 -6.35944 -143.197858 -11.539642 -24.897037 1.140087 0.008394 3.558959 -1.120061 -8.948296 12.709082 -1.65428 44.839138 -48.033284 43.619376 167.334244 71.775661 146.710516 179.995334 75.750288 0.003192 169.228278 55.675331 -30.565484 -35.852509 30.725637 -102.017191 -167.159133 16.077436 -127.543183 179.995664 75.74911 0.002966 169.631306 57.255588 -147.859398 -6.503064 -37.439288 81.707942 99.757549 71.084016 -4.745755
109.8724 83.5042 -13.5684 67.373252 -87.625044 -64.831403 -4.702453 -5.056192 -72.671373 4.21174 4.117029 81.656001 -17.425409 34.636686 -101.296046 41.556906 26.521903 71.828372 -0.001229 0.0 -0.003096 0.000213 0.0 0.002315 4.23882 -44.742756 -8.648267 -68.624645 -14.616149 -125.059114 -8.306141 -38.746979 -88.562669 153.19277 -43.352564 135.188508 83.253601 -50.257753 33.616681 -15.249616 -39.562005 -29.351878 -46.208728 39.652505 36.318649 -82.060392 50.258238 60.096593 7.90454 -24.807532 -3.013629 -88.749525 64.062348 80.390722 -0.019803 -1.725997 -0.542841 -148.058073 -76.783854 -171.065706 -132.779873 -17.595981 -130.286265 11.337466 24.65511 3.961016 155.504502 -3.514664 -161.83802 90.400588 23.68844 -20.035676 135.944575 81.050723 150.444046 167.433731 67.124724 -170.513563 -175.879217 -21.257119 -88.493189 46.983116 -13.02221 -2.69016 10.286035 14.664891 -6.660345 157.539908 -5.328506 -109.963075 162.269313 -11.677441 -143.935716 -5.95371 -8.196427 0.529099 77.741294 72.904608 -95.869762 158.741 -26.61705 179.952939 154.409684 46.072961 149.058417 -0.781726 -2.302861 2.532574 -0.0 -0.000413 -0.001535 -7.701971 -19.741546 -2.760269 6.639832 39.804754 82.551031 -33.757442 72.871233 -66.467994 0.005886 0.001266 0.002943 -6.811782 -16.420867 -0.0 6.335843 38.04062 64.773725 -55.846858 23.979315 -44.29563
109.8484 83.4888 -13.5177 61.07668 -87.580214 -59.080413 -4.881329 -6.551038 -130.471044 -3.088839 4.599123 138.699863 2.43874 25.219799 70.207061 -33.412422 -10.712068 -96.756351 0.001141 -0.0 -0.004105 0.001775 -0.0 -0.005532 -151.971897 14.763912 157.370981 41.125932 -63.580802 114.736532 25.817135 71.930938 -102.992221 163.238575 -26.108412 142.7149 -171.705694 -9.388483 89.949544 43.696746 -67.239544 34.315536 37.21675 -57.917501 -0.642503 1.072547 22.225619 2.21271 6.533826 -20.414815 -2.717891 2.808555 1.024006 0.126963 -132.481956 54.103539 155.534773 6.529789 0.523537 -6.799378 9.96595 32.461817 8.627632 -167.150614 70.886186 -148.166481 155.569928 -3.943126 -161.92958 -104.995687 -2.249663 -162.307851 -116.64531 23.123543 -127.155786 -154.467251 -20.064204 -154.686359 9.682446 9.193298 -2.243013 74.84775 21.233231 -70.449311 138.49446 4.896557 -114.86463 173.942853 -34.405467 -117.024497 125.644469 49.839933 -115.273848 171.969542 -31.130111 -143.802965 0.022757 -1.726923 0.542559 35.067531 75.976771 -48.359641 -35.503713 84.579976 -3.197977 -0.347545 -2.647826 1.866359 0.008084 -2.9e-05 0.004042 -7.552987 -19.052787 -2.620958 4.644154 36.743991 53.785715 -93.663737 54.632472 0.507592 -0.000688 5.8e-05 -0.000172 -7.902735 -17.40892 112.801146 45.543909 -13.797112 90.495706 24.010975 33.562749 162.569764
